<mxfile host="Electron" agent="Mozilla/5.0 (X11; Linux x86_64) AppleWebKit/537.36 (KHTML, like Gecko) draw.io/26.0.4 Chrome/128.0.6613.186 Electron/32.2.5 Safari/537.36" version="26.0.4">
  <diagram name="1 oldal" id="Q96dauBCt2SLIPE51oBn">
    <mxGraphModel dx="2514" dy="992" grid="1" gridSize="10" guides="1" tooltips="1" connect="1" arrows="1" fold="1" page="1" pageScale="1" pageWidth="827" pageHeight="1169" math="0" shadow="0">
      <root>
        <mxCell id="0" />
        <mxCell id="1" parent="0" />
        <mxCell id="FaB3kl8fGOnwr_DNzAc7-1" value="S" style="whiteSpace=wrap;html=1;aspect=fixed;fillColor=#fa6800;strokeColor=#C73500;fontColor=#000000;" vertex="1" parent="1">
          <mxGeometry x="120" y="220" width="40" height="40" as="geometry" />
        </mxCell>
        <mxCell id="FaB3kl8fGOnwr_DNzAc7-4" value="" style="whiteSpace=wrap;html=1;aspect=fixed;fillColor=#6d8764;strokeColor=#3A5431;fontColor=#ffffff;" vertex="1" parent="1">
          <mxGeometry x="120" y="180" width="40" height="40" as="geometry" />
        </mxCell>
        <mxCell id="FaB3kl8fGOnwr_DNzAc7-6" value="" style="whiteSpace=wrap;html=1;aspect=fixed;fillColor=#6d8764;strokeColor=#3A5431;fontColor=#ffffff;" vertex="1" parent="1">
          <mxGeometry x="80" y="180" width="40" height="40" as="geometry" />
        </mxCell>
        <mxCell id="FaB3kl8fGOnwr_DNzAc7-7" value="" style="whiteSpace=wrap;html=1;aspect=fixed;fillColor=#6d8764;strokeColor=#3A5431;fontColor=#ffffff;" vertex="1" parent="1">
          <mxGeometry x="80" y="220" width="40" height="40" as="geometry" />
        </mxCell>
        <mxCell id="FaB3kl8fGOnwr_DNzAc7-8" value="" style="whiteSpace=wrap;html=1;aspect=fixed;fillColor=#6d8764;strokeColor=#3A5431;fontColor=#ffffff;" vertex="1" parent="1">
          <mxGeometry x="80" y="260" width="40" height="40" as="geometry" />
        </mxCell>
        <mxCell id="FaB3kl8fGOnwr_DNzAc7-9" value="" style="whiteSpace=wrap;html=1;aspect=fixed;fillColor=#6d8764;strokeColor=#3A5431;fontColor=#ffffff;" vertex="1" parent="1">
          <mxGeometry x="120" y="260" width="40" height="40" as="geometry" />
        </mxCell>
        <mxCell id="FaB3kl8fGOnwr_DNzAc7-10" value="" style="whiteSpace=wrap;html=1;aspect=fixed;fillColor=#6d8764;strokeColor=#3A5431;fontColor=#ffffff;" vertex="1" parent="1">
          <mxGeometry x="160" y="260" width="40" height="40" as="geometry" />
        </mxCell>
        <mxCell id="FaB3kl8fGOnwr_DNzAc7-11" value="" style="whiteSpace=wrap;html=1;aspect=fixed;fillColor=#6d8764;strokeColor=#3A5431;fontColor=#ffffff;" vertex="1" parent="1">
          <mxGeometry x="160" y="220" width="40" height="40" as="geometry" />
        </mxCell>
        <mxCell id="FaB3kl8fGOnwr_DNzAc7-12" value="" style="whiteSpace=wrap;html=1;aspect=fixed;fillColor=#6d8764;strokeColor=#3A5431;fontColor=#ffffff;" vertex="1" parent="1">
          <mxGeometry x="160" y="180" width="40" height="40" as="geometry" />
        </mxCell>
        <mxCell id="FaB3kl8fGOnwr_DNzAc7-13" value="" style="whiteSpace=wrap;html=1;aspect=fixed;fillColor=#f5f5f5;gradientColor=#b3b3b3;strokeColor=#666666;" vertex="1" parent="1">
          <mxGeometry x="200" y="485" width="40" height="40" as="geometry" />
        </mxCell>
        <mxCell id="FaB3kl8fGOnwr_DNzAc7-14" value="" style="whiteSpace=wrap;html=1;aspect=fixed;fillColor=#f5f5f5;gradientColor=#b3b3b3;strokeColor=#666666;" vertex="1" parent="1">
          <mxGeometry x="240" y="485" width="40" height="40" as="geometry" />
        </mxCell>
        <mxCell id="FaB3kl8fGOnwr_DNzAc7-15" value="" style="whiteSpace=wrap;html=1;aspect=fixed;fillColor=#f5f5f5;gradientColor=#b3b3b3;strokeColor=#666666;" vertex="1" parent="1">
          <mxGeometry x="280" y="485" width="40" height="40" as="geometry" />
        </mxCell>
        <mxCell id="FaB3kl8fGOnwr_DNzAc7-16" value="" style="whiteSpace=wrap;html=1;aspect=fixed;fillColor=#f5f5f5;gradientColor=#b3b3b3;strokeColor=#666666;" vertex="1" parent="1">
          <mxGeometry x="320" y="485" width="40" height="40" as="geometry" />
        </mxCell>
        <mxCell id="FaB3kl8fGOnwr_DNzAc7-17" value="" style="whiteSpace=wrap;html=1;aspect=fixed;fillColor=#f5f5f5;gradientColor=#b3b3b3;strokeColor=#666666;" vertex="1" parent="1">
          <mxGeometry x="360" y="485" width="40" height="40" as="geometry" />
        </mxCell>
        <mxCell id="FaB3kl8fGOnwr_DNzAc7-18" value="" style="whiteSpace=wrap;html=1;aspect=fixed;fillColor=#f5f5f5;gradientColor=#b3b3b3;strokeColor=#666666;" vertex="1" parent="1">
          <mxGeometry x="360" y="525" width="40" height="40" as="geometry" />
        </mxCell>
        <mxCell id="FaB3kl8fGOnwr_DNzAc7-19" value="" style="whiteSpace=wrap;html=1;aspect=fixed;fillColor=#f5f5f5;gradientColor=#b3b3b3;strokeColor=#666666;" vertex="1" parent="1">
          <mxGeometry x="320" y="525" width="40" height="40" as="geometry" />
        </mxCell>
        <mxCell id="FaB3kl8fGOnwr_DNzAc7-20" value="" style="whiteSpace=wrap;html=1;aspect=fixed;fillColor=#fff2cc;gradientColor=#ffd966;strokeColor=#d6b656;" vertex="1" parent="1">
          <mxGeometry x="280" y="525" width="40" height="40" as="geometry" />
        </mxCell>
        <mxCell id="FaB3kl8fGOnwr_DNzAc7-21" value="" style="whiteSpace=wrap;html=1;aspect=fixed;fillColor=#f5f5f5;gradientColor=#b3b3b3;strokeColor=#666666;" vertex="1" parent="1">
          <mxGeometry x="240" y="525" width="40" height="40" as="geometry" />
        </mxCell>
        <mxCell id="FaB3kl8fGOnwr_DNzAc7-22" value="" style="whiteSpace=wrap;html=1;aspect=fixed;fillColor=#f5f5f5;gradientColor=#b3b3b3;strokeColor=#666666;" vertex="1" parent="1">
          <mxGeometry x="200" y="525" width="40" height="40" as="geometry" />
        </mxCell>
        <mxCell id="FaB3kl8fGOnwr_DNzAc7-23" value="" style="whiteSpace=wrap;html=1;aspect=fixed;fillColor=#f5f5f5;gradientColor=#b3b3b3;strokeColor=#666666;" vertex="1" parent="1">
          <mxGeometry x="200" y="565" width="40" height="40" as="geometry" />
        </mxCell>
        <mxCell id="FaB3kl8fGOnwr_DNzAc7-24" value="" style="whiteSpace=wrap;html=1;aspect=fixed;fillColor=#fff2cc;gradientColor=#ffd966;strokeColor=#d6b656;" vertex="1" parent="1">
          <mxGeometry x="240" y="565" width="40" height="40" as="geometry" />
        </mxCell>
        <mxCell id="FaB3kl8fGOnwr_DNzAc7-25" value="" style="whiteSpace=wrap;html=1;aspect=fixed;fillColor=#fff2cc;gradientColor=#ffd966;strokeColor=#d6b656;" vertex="1" parent="1">
          <mxGeometry x="280" y="565" width="40" height="40" as="geometry" />
        </mxCell>
        <mxCell id="FaB3kl8fGOnwr_DNzAc7-26" value="" style="whiteSpace=wrap;html=1;aspect=fixed;fillColor=#fff2cc;gradientColor=#ffd966;strokeColor=#d6b656;" vertex="1" parent="1">
          <mxGeometry x="320" y="565" width="40" height="40" as="geometry" />
        </mxCell>
        <mxCell id="FaB3kl8fGOnwr_DNzAc7-27" value="" style="whiteSpace=wrap;html=1;aspect=fixed;fillColor=#f5f5f5;gradientColor=#b3b3b3;strokeColor=#666666;" vertex="1" parent="1">
          <mxGeometry x="360" y="565" width="40" height="40" as="geometry" />
        </mxCell>
        <mxCell id="FaB3kl8fGOnwr_DNzAc7-28" value="" style="whiteSpace=wrap;html=1;aspect=fixed;fillColor=#f5f5f5;gradientColor=#b3b3b3;strokeColor=#666666;" vertex="1" parent="1">
          <mxGeometry x="360" y="605" width="40" height="40" as="geometry" />
        </mxCell>
        <mxCell id="FaB3kl8fGOnwr_DNzAc7-29" value="" style="whiteSpace=wrap;html=1;aspect=fixed;fillColor=#f5f5f5;gradientColor=#b3b3b3;strokeColor=#666666;" vertex="1" parent="1">
          <mxGeometry x="320" y="605" width="40" height="40" as="geometry" />
        </mxCell>
        <mxCell id="FaB3kl8fGOnwr_DNzAc7-30" value="" style="whiteSpace=wrap;html=1;aspect=fixed;fillColor=#fff2cc;gradientColor=#ffd966;strokeColor=#d6b656;" vertex="1" parent="1">
          <mxGeometry x="280" y="605" width="40" height="40" as="geometry" />
        </mxCell>
        <mxCell id="FaB3kl8fGOnwr_DNzAc7-31" value="" style="whiteSpace=wrap;html=1;aspect=fixed;fillColor=#f5f5f5;gradientColor=#b3b3b3;strokeColor=#666666;" vertex="1" parent="1">
          <mxGeometry x="240" y="605" width="40" height="40" as="geometry" />
        </mxCell>
        <mxCell id="FaB3kl8fGOnwr_DNzAc7-32" value="" style="whiteSpace=wrap;html=1;aspect=fixed;fillColor=#f5f5f5;gradientColor=#b3b3b3;strokeColor=#666666;" vertex="1" parent="1">
          <mxGeometry x="200" y="605" width="40" height="40" as="geometry" />
        </mxCell>
        <mxCell id="FaB3kl8fGOnwr_DNzAc7-33" value="" style="whiteSpace=wrap;html=1;aspect=fixed;fillColor=#f5f5f5;gradientColor=#b3b3b3;strokeColor=#666666;" vertex="1" parent="1">
          <mxGeometry x="200" y="645" width="40" height="40" as="geometry" />
        </mxCell>
        <mxCell id="FaB3kl8fGOnwr_DNzAc7-34" value="" style="whiteSpace=wrap;html=1;aspect=fixed;fillColor=#f5f5f5;gradientColor=#b3b3b3;strokeColor=#666666;" vertex="1" parent="1">
          <mxGeometry x="240" y="645" width="40" height="40" as="geometry" />
        </mxCell>
        <mxCell id="FaB3kl8fGOnwr_DNzAc7-35" value="" style="whiteSpace=wrap;html=1;aspect=fixed;fillColor=#f5f5f5;gradientColor=#b3b3b3;strokeColor=#666666;" vertex="1" parent="1">
          <mxGeometry x="280" y="645" width="40" height="40" as="geometry" />
        </mxCell>
        <mxCell id="FaB3kl8fGOnwr_DNzAc7-36" value="" style="whiteSpace=wrap;html=1;aspect=fixed;fillColor=#f5f5f5;gradientColor=#b3b3b3;strokeColor=#666666;" vertex="1" parent="1">
          <mxGeometry x="320" y="645" width="40" height="40" as="geometry" />
        </mxCell>
        <mxCell id="FaB3kl8fGOnwr_DNzAc7-37" value="" style="whiteSpace=wrap;html=1;aspect=fixed;fillColor=#f5f5f5;gradientColor=#b3b3b3;strokeColor=#666666;" vertex="1" parent="1">
          <mxGeometry x="360" y="645" width="40" height="40" as="geometry" />
        </mxCell>
        <mxCell id="FaB3kl8fGOnwr_DNzAc7-43" value="" style="whiteSpace=wrap;html=1;aspect=fixed;fillColor=#f5f5f5;gradientColor=#b3b3b3;strokeColor=#666666;" vertex="1" parent="1">
          <mxGeometry x="500" y="485" width="40" height="40" as="geometry" />
        </mxCell>
        <mxCell id="FaB3kl8fGOnwr_DNzAc7-44" value="" style="whiteSpace=wrap;html=1;aspect=fixed;fillColor=#f5f5f5;gradientColor=#b3b3b3;strokeColor=#666666;" vertex="1" parent="1">
          <mxGeometry x="540" y="485" width="40" height="40" as="geometry" />
        </mxCell>
        <mxCell id="FaB3kl8fGOnwr_DNzAc7-45" value="" style="whiteSpace=wrap;html=1;aspect=fixed;fillColor=#f5f5f5;gradientColor=#b3b3b3;strokeColor=#666666;" vertex="1" parent="1">
          <mxGeometry x="580" y="485" width="40" height="40" as="geometry" />
        </mxCell>
        <mxCell id="FaB3kl8fGOnwr_DNzAc7-46" value="" style="whiteSpace=wrap;html=1;aspect=fixed;fillColor=#f5f5f5;gradientColor=#b3b3b3;strokeColor=#666666;" vertex="1" parent="1">
          <mxGeometry x="620" y="485" width="40" height="40" as="geometry" />
        </mxCell>
        <mxCell id="FaB3kl8fGOnwr_DNzAc7-47" value="" style="whiteSpace=wrap;html=1;aspect=fixed;fillColor=#f5f5f5;gradientColor=#b3b3b3;strokeColor=#666666;" vertex="1" parent="1">
          <mxGeometry x="660" y="485" width="40" height="40" as="geometry" />
        </mxCell>
        <mxCell id="FaB3kl8fGOnwr_DNzAc7-48" value="" style="whiteSpace=wrap;html=1;aspect=fixed;fillColor=#f5f5f5;gradientColor=#b3b3b3;strokeColor=#666666;" vertex="1" parent="1">
          <mxGeometry x="660" y="525" width="40" height="40" as="geometry" />
        </mxCell>
        <mxCell id="FaB3kl8fGOnwr_DNzAc7-49" value="" style="whiteSpace=wrap;html=1;aspect=fixed;fillColor=#f5f5f5;gradientColor=#b3b3b3;strokeColor=#666666;" vertex="1" parent="1">
          <mxGeometry x="620" y="525" width="40" height="40" as="geometry" />
        </mxCell>
        <mxCell id="FaB3kl8fGOnwr_DNzAc7-50" value="" style="whiteSpace=wrap;html=1;aspect=fixed;fillColor=#f5f5f5;gradientColor=#b3b3b3;strokeColor=#666666;" vertex="1" parent="1">
          <mxGeometry x="580" y="525" width="40" height="40" as="geometry" />
        </mxCell>
        <mxCell id="FaB3kl8fGOnwr_DNzAc7-51" value="" style="whiteSpace=wrap;html=1;aspect=fixed;fillColor=#f5f5f5;gradientColor=#b3b3b3;strokeColor=#666666;" vertex="1" parent="1">
          <mxGeometry x="540" y="525" width="40" height="40" as="geometry" />
        </mxCell>
        <mxCell id="FaB3kl8fGOnwr_DNzAc7-52" value="" style="whiteSpace=wrap;html=1;aspect=fixed;fillColor=#f5f5f5;gradientColor=#b3b3b3;strokeColor=#666666;" vertex="1" parent="1">
          <mxGeometry x="500" y="525" width="40" height="40" as="geometry" />
        </mxCell>
        <mxCell id="FaB3kl8fGOnwr_DNzAc7-53" value="" style="whiteSpace=wrap;html=1;aspect=fixed;fillColor=#f5f5f5;gradientColor=#b3b3b3;strokeColor=#666666;" vertex="1" parent="1">
          <mxGeometry x="500" y="565" width="40" height="40" as="geometry" />
        </mxCell>
        <mxCell id="FaB3kl8fGOnwr_DNzAc7-54" value="" style="whiteSpace=wrap;html=1;aspect=fixed;fillColor=#f5f5f5;gradientColor=#b3b3b3;strokeColor=#666666;" vertex="1" parent="1">
          <mxGeometry x="540" y="565" width="40" height="40" as="geometry" />
        </mxCell>
        <mxCell id="FaB3kl8fGOnwr_DNzAc7-55" value="" style="whiteSpace=wrap;html=1;aspect=fixed;fillColor=#f5f5f5;gradientColor=#b3b3b3;strokeColor=#666666;" vertex="1" parent="1">
          <mxGeometry x="580" y="565" width="40" height="40" as="geometry" />
        </mxCell>
        <mxCell id="FaB3kl8fGOnwr_DNzAc7-56" value="" style="whiteSpace=wrap;html=1;aspect=fixed;fillColor=#f5f5f5;gradientColor=#b3b3b3;strokeColor=#666666;" vertex="1" parent="1">
          <mxGeometry x="620" y="565" width="40" height="40" as="geometry" />
        </mxCell>
        <mxCell id="FaB3kl8fGOnwr_DNzAc7-57" value="" style="whiteSpace=wrap;html=1;aspect=fixed;fillColor=#f5f5f5;gradientColor=#b3b3b3;strokeColor=#666666;" vertex="1" parent="1">
          <mxGeometry x="660" y="565" width="40" height="40" as="geometry" />
        </mxCell>
        <mxCell id="FaB3kl8fGOnwr_DNzAc7-58" value="" style="whiteSpace=wrap;html=1;aspect=fixed;fillColor=#f5f5f5;gradientColor=#b3b3b3;strokeColor=#666666;" vertex="1" parent="1">
          <mxGeometry x="660" y="605" width="40" height="40" as="geometry" />
        </mxCell>
        <mxCell id="FaB3kl8fGOnwr_DNzAc7-59" value="" style="whiteSpace=wrap;html=1;aspect=fixed;fillColor=#f5f5f5;gradientColor=#b3b3b3;strokeColor=#666666;" vertex="1" parent="1">
          <mxGeometry x="620" y="605" width="40" height="40" as="geometry" />
        </mxCell>
        <mxCell id="FaB3kl8fGOnwr_DNzAc7-60" value="" style="whiteSpace=wrap;html=1;aspect=fixed;fillColor=#f5f5f5;gradientColor=#b3b3b3;strokeColor=#666666;" vertex="1" parent="1">
          <mxGeometry x="580" y="605" width="40" height="40" as="geometry" />
        </mxCell>
        <mxCell id="FaB3kl8fGOnwr_DNzAc7-61" value="" style="whiteSpace=wrap;html=1;aspect=fixed;fillColor=#f5f5f5;gradientColor=#b3b3b3;strokeColor=#666666;" vertex="1" parent="1">
          <mxGeometry x="540" y="605" width="40" height="40" as="geometry" />
        </mxCell>
        <mxCell id="FaB3kl8fGOnwr_DNzAc7-62" value="" style="whiteSpace=wrap;html=1;aspect=fixed;fillColor=#f5f5f5;gradientColor=#b3b3b3;strokeColor=#666666;" vertex="1" parent="1">
          <mxGeometry x="500" y="605" width="40" height="40" as="geometry" />
        </mxCell>
        <mxCell id="FaB3kl8fGOnwr_DNzAc7-63" value="" style="whiteSpace=wrap;html=1;aspect=fixed;fillColor=#f5f5f5;gradientColor=#b3b3b3;strokeColor=#666666;" vertex="1" parent="1">
          <mxGeometry x="500" y="645" width="40" height="40" as="geometry" />
        </mxCell>
        <mxCell id="FaB3kl8fGOnwr_DNzAc7-64" value="" style="whiteSpace=wrap;html=1;aspect=fixed;fillColor=#f5f5f5;gradientColor=#b3b3b3;strokeColor=#666666;" vertex="1" parent="1">
          <mxGeometry x="540" y="645" width="40" height="40" as="geometry" />
        </mxCell>
        <mxCell id="FaB3kl8fGOnwr_DNzAc7-65" value="" style="whiteSpace=wrap;html=1;aspect=fixed;fillColor=#f5f5f5;gradientColor=#b3b3b3;strokeColor=#666666;" vertex="1" parent="1">
          <mxGeometry x="580" y="645" width="40" height="40" as="geometry" />
        </mxCell>
        <mxCell id="FaB3kl8fGOnwr_DNzAc7-66" value="" style="whiteSpace=wrap;html=1;aspect=fixed;fillColor=#f5f5f5;gradientColor=#b3b3b3;strokeColor=#666666;" vertex="1" parent="1">
          <mxGeometry x="620" y="645" width="40" height="40" as="geometry" />
        </mxCell>
        <mxCell id="FaB3kl8fGOnwr_DNzAc7-67" value="" style="whiteSpace=wrap;html=1;aspect=fixed;fillColor=#f5f5f5;gradientColor=#b3b3b3;strokeColor=#666666;" vertex="1" parent="1">
          <mxGeometry x="660" y="645" width="40" height="40" as="geometry" />
        </mxCell>
        <mxCell id="FaB3kl8fGOnwr_DNzAc7-68" value="Buffer0" style="rounded=0;whiteSpace=wrap;html=1;fontSize=30;" vertex="1" parent="1">
          <mxGeometry x="240" y="420" width="120" height="50" as="geometry" />
        </mxCell>
        <mxCell id="FaB3kl8fGOnwr_DNzAc7-69" value="Buffer1" style="rounded=0;whiteSpace=wrap;html=1;fontSize=30;" vertex="1" parent="1">
          <mxGeometry x="540" y="420" width="120" height="50" as="geometry" />
        </mxCell>
        <mxCell id="FaB3kl8fGOnwr_DNzAc7-95" value="" style="shape=flexArrow;endArrow=classic;html=1;rounded=0;width=14.166666666666668;endSize=7.2250000000000005;fillColor=#e6d0de;gradientColor=#d5739d;strokeColor=#996185;" edge="1" parent="1">
          <mxGeometry width="50" height="50" relative="1" as="geometry">
            <mxPoint x="420" y="584.58" as="sourcePoint" />
            <mxPoint x="480" y="584.58" as="targetPoint" />
          </mxGeometry>
        </mxCell>
        <mxCell id="FaB3kl8fGOnwr_DNzAc7-96" value="" style="whiteSpace=wrap;html=1;aspect=fixed;fillColor=#f5f5f5;gradientColor=#b3b3b3;strokeColor=#666666;" vertex="1" parent="1">
          <mxGeometry x="200" y="825" width="40" height="40" as="geometry" />
        </mxCell>
        <mxCell id="FaB3kl8fGOnwr_DNzAc7-97" value="" style="whiteSpace=wrap;html=1;aspect=fixed;fillColor=#f5f5f5;gradientColor=#b3b3b3;strokeColor=#666666;" vertex="1" parent="1">
          <mxGeometry x="240" y="825" width="40" height="40" as="geometry" />
        </mxCell>
        <mxCell id="FaB3kl8fGOnwr_DNzAc7-98" value="" style="whiteSpace=wrap;html=1;aspect=fixed;fillColor=#f5f5f5;gradientColor=#b3b3b3;strokeColor=#666666;" vertex="1" parent="1">
          <mxGeometry x="280" y="825" width="40" height="40" as="geometry" />
        </mxCell>
        <mxCell id="FaB3kl8fGOnwr_DNzAc7-99" value="" style="whiteSpace=wrap;html=1;aspect=fixed;fillColor=#f5f5f5;gradientColor=#b3b3b3;strokeColor=#666666;" vertex="1" parent="1">
          <mxGeometry x="320" y="825" width="40" height="40" as="geometry" />
        </mxCell>
        <mxCell id="FaB3kl8fGOnwr_DNzAc7-100" value="" style="whiteSpace=wrap;html=1;aspect=fixed;fillColor=#f5f5f5;gradientColor=#b3b3b3;strokeColor=#666666;" vertex="1" parent="1">
          <mxGeometry x="360" y="825" width="40" height="40" as="geometry" />
        </mxCell>
        <mxCell id="FaB3kl8fGOnwr_DNzAc7-101" value="" style="whiteSpace=wrap;html=1;aspect=fixed;fillColor=#f5f5f5;gradientColor=#b3b3b3;strokeColor=#666666;" vertex="1" parent="1">
          <mxGeometry x="360" y="865" width="40" height="40" as="geometry" />
        </mxCell>
        <mxCell id="FaB3kl8fGOnwr_DNzAc7-102" value="" style="whiteSpace=wrap;html=1;aspect=fixed;fillColor=#f5f5f5;gradientColor=#b3b3b3;strokeColor=#666666;" vertex="1" parent="1">
          <mxGeometry x="320" y="865" width="40" height="40" as="geometry" />
        </mxCell>
        <mxCell id="FaB3kl8fGOnwr_DNzAc7-103" value="" style="whiteSpace=wrap;html=1;aspect=fixed;fillColor=#fff2cc;gradientColor=#ffd966;strokeColor=#d6b656;" vertex="1" parent="1">
          <mxGeometry x="280" y="865" width="40" height="40" as="geometry" />
        </mxCell>
        <mxCell id="FaB3kl8fGOnwr_DNzAc7-104" value="" style="whiteSpace=wrap;html=1;aspect=fixed;fillColor=#f5f5f5;gradientColor=#b3b3b3;strokeColor=#666666;" vertex="1" parent="1">
          <mxGeometry x="240" y="865" width="40" height="40" as="geometry" />
        </mxCell>
        <mxCell id="FaB3kl8fGOnwr_DNzAc7-105" value="" style="whiteSpace=wrap;html=1;aspect=fixed;fillColor=#f5f5f5;gradientColor=#b3b3b3;strokeColor=#666666;" vertex="1" parent="1">
          <mxGeometry x="200" y="865" width="40" height="40" as="geometry" />
        </mxCell>
        <mxCell id="FaB3kl8fGOnwr_DNzAc7-106" value="" style="whiteSpace=wrap;html=1;aspect=fixed;fillColor=#f5f5f5;gradientColor=#b3b3b3;strokeColor=#666666;" vertex="1" parent="1">
          <mxGeometry x="200" y="905" width="40" height="40" as="geometry" />
        </mxCell>
        <mxCell id="FaB3kl8fGOnwr_DNzAc7-107" value="" style="whiteSpace=wrap;html=1;aspect=fixed;fillColor=#fff2cc;gradientColor=#ffd966;strokeColor=#d6b656;" vertex="1" parent="1">
          <mxGeometry x="240" y="905" width="40" height="40" as="geometry" />
        </mxCell>
        <mxCell id="FaB3kl8fGOnwr_DNzAc7-108" value="" style="whiteSpace=wrap;html=1;aspect=fixed;fillColor=#fff2cc;gradientColor=#ffd966;strokeColor=#d6b656;" vertex="1" parent="1">
          <mxGeometry x="280" y="905" width="40" height="40" as="geometry" />
        </mxCell>
        <mxCell id="FaB3kl8fGOnwr_DNzAc7-109" value="" style="whiteSpace=wrap;html=1;aspect=fixed;fillColor=#fff2cc;gradientColor=#ffd966;strokeColor=#d6b656;" vertex="1" parent="1">
          <mxGeometry x="320" y="905" width="40" height="40" as="geometry" />
        </mxCell>
        <mxCell id="FaB3kl8fGOnwr_DNzAc7-110" value="" style="whiteSpace=wrap;html=1;aspect=fixed;fillColor=#f5f5f5;gradientColor=#b3b3b3;strokeColor=#666666;" vertex="1" parent="1">
          <mxGeometry x="360" y="905" width="40" height="40" as="geometry" />
        </mxCell>
        <mxCell id="FaB3kl8fGOnwr_DNzAc7-111" value="" style="whiteSpace=wrap;html=1;aspect=fixed;fillColor=#f5f5f5;gradientColor=#b3b3b3;strokeColor=#666666;" vertex="1" parent="1">
          <mxGeometry x="360" y="945" width="40" height="40" as="geometry" />
        </mxCell>
        <mxCell id="FaB3kl8fGOnwr_DNzAc7-112" value="" style="whiteSpace=wrap;html=1;aspect=fixed;fillColor=#f5f5f5;gradientColor=#b3b3b3;strokeColor=#666666;" vertex="1" parent="1">
          <mxGeometry x="320" y="945" width="40" height="40" as="geometry" />
        </mxCell>
        <mxCell id="FaB3kl8fGOnwr_DNzAc7-113" value="" style="whiteSpace=wrap;html=1;aspect=fixed;fillColor=#fff2cc;gradientColor=#ffd966;strokeColor=#d6b656;" vertex="1" parent="1">
          <mxGeometry x="280" y="945" width="40" height="40" as="geometry" />
        </mxCell>
        <mxCell id="FaB3kl8fGOnwr_DNzAc7-114" value="" style="whiteSpace=wrap;html=1;aspect=fixed;fillColor=#f5f5f5;gradientColor=#b3b3b3;strokeColor=#666666;" vertex="1" parent="1">
          <mxGeometry x="240" y="945" width="40" height="40" as="geometry" />
        </mxCell>
        <mxCell id="FaB3kl8fGOnwr_DNzAc7-115" value="" style="whiteSpace=wrap;html=1;aspect=fixed;fillColor=#f5f5f5;gradientColor=#b3b3b3;strokeColor=#666666;" vertex="1" parent="1">
          <mxGeometry x="200" y="945" width="40" height="40" as="geometry" />
        </mxCell>
        <mxCell id="FaB3kl8fGOnwr_DNzAc7-116" value="" style="whiteSpace=wrap;html=1;aspect=fixed;fillColor=#f5f5f5;gradientColor=#b3b3b3;strokeColor=#666666;" vertex="1" parent="1">
          <mxGeometry x="200" y="985" width="40" height="40" as="geometry" />
        </mxCell>
        <mxCell id="FaB3kl8fGOnwr_DNzAc7-117" value="" style="whiteSpace=wrap;html=1;aspect=fixed;fillColor=#f5f5f5;gradientColor=#b3b3b3;strokeColor=#666666;" vertex="1" parent="1">
          <mxGeometry x="240" y="985" width="40" height="40" as="geometry" />
        </mxCell>
        <mxCell id="FaB3kl8fGOnwr_DNzAc7-118" value="" style="whiteSpace=wrap;html=1;aspect=fixed;fillColor=#f5f5f5;gradientColor=#b3b3b3;strokeColor=#666666;" vertex="1" parent="1">
          <mxGeometry x="280" y="985" width="40" height="40" as="geometry" />
        </mxCell>
        <mxCell id="FaB3kl8fGOnwr_DNzAc7-119" value="" style="whiteSpace=wrap;html=1;aspect=fixed;fillColor=#f5f5f5;gradientColor=#b3b3b3;strokeColor=#666666;" vertex="1" parent="1">
          <mxGeometry x="320" y="985" width="40" height="40" as="geometry" />
        </mxCell>
        <mxCell id="FaB3kl8fGOnwr_DNzAc7-120" value="" style="whiteSpace=wrap;html=1;aspect=fixed;fillColor=#f5f5f5;gradientColor=#b3b3b3;strokeColor=#666666;" vertex="1" parent="1">
          <mxGeometry x="360" y="985" width="40" height="40" as="geometry" />
        </mxCell>
        <mxCell id="FaB3kl8fGOnwr_DNzAc7-121" value="" style="whiteSpace=wrap;html=1;aspect=fixed;fillColor=#f5f5f5;gradientColor=#b3b3b3;strokeColor=#666666;" vertex="1" parent="1">
          <mxGeometry x="500" y="825" width="40" height="40" as="geometry" />
        </mxCell>
        <mxCell id="FaB3kl8fGOnwr_DNzAc7-122" value="" style="whiteSpace=wrap;html=1;aspect=fixed;fillColor=#f5f5f5;gradientColor=#b3b3b3;strokeColor=#666666;" vertex="1" parent="1">
          <mxGeometry x="540" y="825" width="40" height="40" as="geometry" />
        </mxCell>
        <mxCell id="FaB3kl8fGOnwr_DNzAc7-123" value="" style="whiteSpace=wrap;html=1;aspect=fixed;fillColor=#f5f5f5;gradientColor=#b3b3b3;strokeColor=#666666;" vertex="1" parent="1">
          <mxGeometry x="580" y="825" width="40" height="40" as="geometry" />
        </mxCell>
        <mxCell id="FaB3kl8fGOnwr_DNzAc7-124" value="" style="whiteSpace=wrap;html=1;aspect=fixed;fillColor=#f5f5f5;gradientColor=#b3b3b3;strokeColor=#666666;" vertex="1" parent="1">
          <mxGeometry x="620" y="825" width="40" height="40" as="geometry" />
        </mxCell>
        <mxCell id="FaB3kl8fGOnwr_DNzAc7-125" value="" style="whiteSpace=wrap;html=1;aspect=fixed;fillColor=#f5f5f5;gradientColor=#b3b3b3;strokeColor=#666666;" vertex="1" parent="1">
          <mxGeometry x="660" y="825" width="40" height="40" as="geometry" />
        </mxCell>
        <mxCell id="FaB3kl8fGOnwr_DNzAc7-126" value="" style="whiteSpace=wrap;html=1;aspect=fixed;fillColor=#f5f5f5;gradientColor=#b3b3b3;strokeColor=#666666;" vertex="1" parent="1">
          <mxGeometry x="660" y="865" width="40" height="40" as="geometry" />
        </mxCell>
        <mxCell id="FaB3kl8fGOnwr_DNzAc7-127" value="" style="whiteSpace=wrap;html=1;aspect=fixed;fillColor=#fff2cc;gradientColor=#ffd966;strokeColor=#d6b656;" vertex="1" parent="1">
          <mxGeometry x="620" y="865" width="40" height="40" as="geometry" />
        </mxCell>
        <mxCell id="FaB3kl8fGOnwr_DNzAc7-128" value="" style="whiteSpace=wrap;html=1;aspect=fixed;fillColor=#fff2cc;gradientColor=#ffd966;strokeColor=#d6b656;" vertex="1" parent="1">
          <mxGeometry x="580" y="865" width="40" height="40" as="geometry" />
        </mxCell>
        <mxCell id="FaB3kl8fGOnwr_DNzAc7-129" value="" style="whiteSpace=wrap;html=1;aspect=fixed;fillColor=#fff2cc;gradientColor=#ffd966;strokeColor=#d6b656;" vertex="1" parent="1">
          <mxGeometry x="540" y="865" width="40" height="40" as="geometry" />
        </mxCell>
        <mxCell id="FaB3kl8fGOnwr_DNzAc7-130" value="" style="whiteSpace=wrap;html=1;aspect=fixed;fillColor=#f5f5f5;gradientColor=#b3b3b3;strokeColor=#666666;" vertex="1" parent="1">
          <mxGeometry x="500" y="865" width="40" height="40" as="geometry" />
        </mxCell>
        <mxCell id="FaB3kl8fGOnwr_DNzAc7-131" value="" style="whiteSpace=wrap;html=1;aspect=fixed;fillColor=#f5f5f5;gradientColor=#b3b3b3;strokeColor=#666666;" vertex="1" parent="1">
          <mxGeometry x="500" y="905" width="40" height="40" as="geometry" />
        </mxCell>
        <mxCell id="FaB3kl8fGOnwr_DNzAc7-132" value="" style="whiteSpace=wrap;html=1;aspect=fixed;fillColor=#fff2cc;gradientColor=#ffd966;strokeColor=#d6b656;" vertex="1" parent="1">
          <mxGeometry x="540" y="905" width="40" height="40" as="geometry" />
        </mxCell>
        <mxCell id="FaB3kl8fGOnwr_DNzAc7-133" value="" style="whiteSpace=wrap;html=1;aspect=fixed;fillColor=#f5f5f5;gradientColor=#b3b3b3;strokeColor=#666666;" vertex="1" parent="1">
          <mxGeometry x="580" y="905" width="40" height="40" as="geometry" />
        </mxCell>
        <mxCell id="FaB3kl8fGOnwr_DNzAc7-134" value="" style="whiteSpace=wrap;html=1;aspect=fixed;fillColor=#fff2cc;gradientColor=#ffd966;strokeColor=#d6b656;" vertex="1" parent="1">
          <mxGeometry x="620" y="905" width="40" height="40" as="geometry" />
        </mxCell>
        <mxCell id="FaB3kl8fGOnwr_DNzAc7-135" value="" style="whiteSpace=wrap;html=1;aspect=fixed;fillColor=#f5f5f5;gradientColor=#b3b3b3;strokeColor=#666666;" vertex="1" parent="1">
          <mxGeometry x="660" y="905" width="40" height="40" as="geometry" />
        </mxCell>
        <mxCell id="FaB3kl8fGOnwr_DNzAc7-136" value="" style="whiteSpace=wrap;html=1;aspect=fixed;fillColor=#f5f5f5;gradientColor=#b3b3b3;strokeColor=#666666;" vertex="1" parent="1">
          <mxGeometry x="660" y="945" width="40" height="40" as="geometry" />
        </mxCell>
        <mxCell id="FaB3kl8fGOnwr_DNzAc7-137" value="" style="whiteSpace=wrap;html=1;aspect=fixed;fillColor=#fff2cc;gradientColor=#ffd966;strokeColor=#d6b656;" vertex="1" parent="1">
          <mxGeometry x="620" y="945" width="40" height="40" as="geometry" />
        </mxCell>
        <mxCell id="FaB3kl8fGOnwr_DNzAc7-138" value="" style="whiteSpace=wrap;html=1;aspect=fixed;fillColor=#fff2cc;gradientColor=#ffd966;strokeColor=#d6b656;" vertex="1" parent="1">
          <mxGeometry x="580" y="945" width="40" height="40" as="geometry" />
        </mxCell>
        <mxCell id="FaB3kl8fGOnwr_DNzAc7-139" value="" style="whiteSpace=wrap;html=1;aspect=fixed;fillColor=#fff2cc;gradientColor=#ffd966;strokeColor=#d6b656;" vertex="1" parent="1">
          <mxGeometry x="540" y="945" width="40" height="40" as="geometry" />
        </mxCell>
        <mxCell id="FaB3kl8fGOnwr_DNzAc7-140" value="" style="whiteSpace=wrap;html=1;aspect=fixed;fillColor=#f5f5f5;gradientColor=#b3b3b3;strokeColor=#666666;" vertex="1" parent="1">
          <mxGeometry x="500" y="945" width="40" height="40" as="geometry" />
        </mxCell>
        <mxCell id="FaB3kl8fGOnwr_DNzAc7-141" value="" style="whiteSpace=wrap;html=1;aspect=fixed;fillColor=#f5f5f5;gradientColor=#b3b3b3;strokeColor=#666666;" vertex="1" parent="1">
          <mxGeometry x="500" y="985" width="40" height="40" as="geometry" />
        </mxCell>
        <mxCell id="FaB3kl8fGOnwr_DNzAc7-142" value="" style="whiteSpace=wrap;html=1;aspect=fixed;fillColor=#f5f5f5;gradientColor=#b3b3b3;strokeColor=#666666;" vertex="1" parent="1">
          <mxGeometry x="540" y="985" width="40" height="40" as="geometry" />
        </mxCell>
        <mxCell id="FaB3kl8fGOnwr_DNzAc7-143" value="" style="whiteSpace=wrap;html=1;aspect=fixed;fillColor=#f5f5f5;gradientColor=#b3b3b3;strokeColor=#666666;" vertex="1" parent="1">
          <mxGeometry x="580" y="985" width="40" height="40" as="geometry" />
        </mxCell>
        <mxCell id="FaB3kl8fGOnwr_DNzAc7-144" value="" style="whiteSpace=wrap;html=1;aspect=fixed;fillColor=#f5f5f5;gradientColor=#b3b3b3;strokeColor=#666666;" vertex="1" parent="1">
          <mxGeometry x="620" y="985" width="40" height="40" as="geometry" />
        </mxCell>
        <mxCell id="FaB3kl8fGOnwr_DNzAc7-145" value="" style="whiteSpace=wrap;html=1;aspect=fixed;fillColor=#f5f5f5;gradientColor=#b3b3b3;strokeColor=#666666;" vertex="1" parent="1">
          <mxGeometry x="660" y="985" width="40" height="40" as="geometry" />
        </mxCell>
        <mxCell id="FaB3kl8fGOnwr_DNzAc7-146" value="Buffer0" style="rounded=0;whiteSpace=wrap;html=1;fontSize=30;" vertex="1" parent="1">
          <mxGeometry x="240" y="760" width="120" height="50" as="geometry" />
        </mxCell>
        <mxCell id="FaB3kl8fGOnwr_DNzAc7-147" value="Buffer1" style="rounded=0;whiteSpace=wrap;html=1;fontSize=30;" vertex="1" parent="1">
          <mxGeometry x="540" y="760" width="120" height="50" as="geometry" />
        </mxCell>
        <mxCell id="FaB3kl8fGOnwr_DNzAc7-148" value="" style="shape=flexArrow;endArrow=classic;html=1;rounded=0;width=14.166666666666668;endSize=7.2250000000000005;fillColor=#e6d0de;gradientColor=#d5739d;strokeColor=#996185;flowAnimation=0;" edge="1" parent="1">
          <mxGeometry width="50" height="50" relative="1" as="geometry">
            <mxPoint x="480" y="924.58" as="sourcePoint" />
            <mxPoint x="420" y="924.58" as="targetPoint" />
          </mxGeometry>
        </mxCell>
        <mxCell id="FaB3kl8fGOnwr_DNzAc7-149" value="" style="whiteSpace=wrap;html=1;aspect=fixed;fillColor=#f5f5f5;gradientColor=#b3b3b3;strokeColor=#666666;" vertex="1" parent="1">
          <mxGeometry x="-480" y="825" width="40" height="40" as="geometry" />
        </mxCell>
        <mxCell id="FaB3kl8fGOnwr_DNzAc7-150" value="" style="whiteSpace=wrap;html=1;aspect=fixed;fillColor=#f5f5f5;gradientColor=#b3b3b3;strokeColor=#666666;" vertex="1" parent="1">
          <mxGeometry x="-440" y="825" width="40" height="40" as="geometry" />
        </mxCell>
        <mxCell id="FaB3kl8fGOnwr_DNzAc7-151" value="" style="whiteSpace=wrap;html=1;aspect=fixed;fillColor=#fff2cc;gradientColor=#ffd966;strokeColor=#d6b656;" vertex="1" parent="1">
          <mxGeometry x="-400" y="825" width="40" height="40" as="geometry" />
        </mxCell>
        <mxCell id="FaB3kl8fGOnwr_DNzAc7-152" value="" style="whiteSpace=wrap;html=1;aspect=fixed;fillColor=#f5f5f5;gradientColor=#b3b3b3;strokeColor=#666666;" vertex="1" parent="1">
          <mxGeometry x="-360" y="825" width="40" height="40" as="geometry" />
        </mxCell>
        <mxCell id="FaB3kl8fGOnwr_DNzAc7-153" value="" style="whiteSpace=wrap;html=1;aspect=fixed;fillColor=#f5f5f5;gradientColor=#b3b3b3;strokeColor=#666666;" vertex="1" parent="1">
          <mxGeometry x="-320" y="825" width="40" height="40" as="geometry" />
        </mxCell>
        <mxCell id="FaB3kl8fGOnwr_DNzAc7-154" value="" style="whiteSpace=wrap;html=1;aspect=fixed;fillColor=#f5f5f5;gradientColor=#b3b3b3;strokeColor=#666666;" vertex="1" parent="1">
          <mxGeometry x="-320" y="865" width="40" height="40" as="geometry" />
        </mxCell>
        <mxCell id="FaB3kl8fGOnwr_DNzAc7-155" value="" style="whiteSpace=wrap;html=1;aspect=fixed;fillColor=#fff2cc;gradientColor=#ffd966;strokeColor=#d6b656;" vertex="1" parent="1">
          <mxGeometry x="-360" y="865" width="40" height="40" as="geometry" />
        </mxCell>
        <mxCell id="FaB3kl8fGOnwr_DNzAc7-156" value="" style="whiteSpace=wrap;html=1;aspect=fixed;fillColor=#f5f5f5;gradientColor=#b3b3b3;strokeColor=#666666;" vertex="1" parent="1">
          <mxGeometry x="-400" y="865" width="40" height="40" as="geometry" />
        </mxCell>
        <mxCell id="FaB3kl8fGOnwr_DNzAc7-157" value="" style="whiteSpace=wrap;html=1;aspect=fixed;fillColor=#fff2cc;gradientColor=#ffd966;strokeColor=#d6b656;" vertex="1" parent="1">
          <mxGeometry x="-440" y="865" width="40" height="40" as="geometry" />
        </mxCell>
        <mxCell id="FaB3kl8fGOnwr_DNzAc7-158" value="" style="whiteSpace=wrap;html=1;aspect=fixed;fillColor=#f5f5f5;gradientColor=#b3b3b3;strokeColor=#666666;" vertex="1" parent="1">
          <mxGeometry x="-480" y="865" width="40" height="40" as="geometry" />
        </mxCell>
        <mxCell id="FaB3kl8fGOnwr_DNzAc7-159" value="" style="whiteSpace=wrap;html=1;aspect=fixed;fillColor=#fff2cc;gradientColor=#ffd966;strokeColor=#d6b656;" vertex="1" parent="1">
          <mxGeometry x="-480" y="905" width="40" height="40" as="geometry" />
        </mxCell>
        <mxCell id="FaB3kl8fGOnwr_DNzAc7-160" value="" style="whiteSpace=wrap;html=1;aspect=fixed;fillColor=#f5f5f5;gradientColor=#b3b3b3;strokeColor=#666666;" vertex="1" parent="1">
          <mxGeometry x="-440" y="905" width="40" height="40" as="geometry" />
        </mxCell>
        <mxCell id="FaB3kl8fGOnwr_DNzAc7-161" value="" style="whiteSpace=wrap;html=1;aspect=fixed;fillColor=#f5f5f5;gradientColor=#b3b3b3;strokeColor=#666666;" vertex="1" parent="1">
          <mxGeometry x="-400" y="905" width="40" height="40" as="geometry" />
        </mxCell>
        <mxCell id="FaB3kl8fGOnwr_DNzAc7-162" value="" style="whiteSpace=wrap;html=1;aspect=fixed;fillColor=#f5f5f5;gradientColor=#b3b3b3;strokeColor=#666666;" vertex="1" parent="1">
          <mxGeometry x="-360" y="905" width="40" height="40" as="geometry" />
        </mxCell>
        <mxCell id="FaB3kl8fGOnwr_DNzAc7-163" value="" style="whiteSpace=wrap;html=1;aspect=fixed;fillColor=#fff2cc;gradientColor=#ffd966;strokeColor=#d6b656;" vertex="1" parent="1">
          <mxGeometry x="-320" y="905" width="40" height="40" as="geometry" />
        </mxCell>
        <mxCell id="FaB3kl8fGOnwr_DNzAc7-164" value="" style="whiteSpace=wrap;html=1;aspect=fixed;fillColor=#f5f5f5;gradientColor=#b3b3b3;strokeColor=#666666;" vertex="1" parent="1">
          <mxGeometry x="-320" y="945" width="40" height="40" as="geometry" />
        </mxCell>
        <mxCell id="FaB3kl8fGOnwr_DNzAc7-165" value="" style="whiteSpace=wrap;html=1;aspect=fixed;fillColor=#fff2cc;gradientColor=#ffd966;strokeColor=#d6b656;" vertex="1" parent="1">
          <mxGeometry x="-360" y="945" width="40" height="40" as="geometry" />
        </mxCell>
        <mxCell id="FaB3kl8fGOnwr_DNzAc7-166" value="" style="whiteSpace=wrap;html=1;aspect=fixed;fillColor=#f5f5f5;gradientColor=#b3b3b3;strokeColor=#666666;" vertex="1" parent="1">
          <mxGeometry x="-400" y="945" width="40" height="40" as="geometry" />
        </mxCell>
        <mxCell id="FaB3kl8fGOnwr_DNzAc7-167" value="" style="whiteSpace=wrap;html=1;aspect=fixed;fillColor=#fff2cc;gradientColor=#ffd966;strokeColor=#d6b656;" vertex="1" parent="1">
          <mxGeometry x="-440" y="945" width="40" height="40" as="geometry" />
        </mxCell>
        <mxCell id="FaB3kl8fGOnwr_DNzAc7-168" value="" style="whiteSpace=wrap;html=1;aspect=fixed;fillColor=#f5f5f5;gradientColor=#b3b3b3;strokeColor=#666666;" vertex="1" parent="1">
          <mxGeometry x="-480" y="945" width="40" height="40" as="geometry" />
        </mxCell>
        <mxCell id="FaB3kl8fGOnwr_DNzAc7-169" value="" style="whiteSpace=wrap;html=1;aspect=fixed;fillColor=#f5f5f5;gradientColor=#b3b3b3;strokeColor=#666666;" vertex="1" parent="1">
          <mxGeometry x="-480" y="985" width="40" height="40" as="geometry" />
        </mxCell>
        <mxCell id="FaB3kl8fGOnwr_DNzAc7-170" value="" style="whiteSpace=wrap;html=1;aspect=fixed;fillColor=#f5f5f5;gradientColor=#b3b3b3;strokeColor=#666666;" vertex="1" parent="1">
          <mxGeometry x="-440" y="985" width="40" height="40" as="geometry" />
        </mxCell>
        <mxCell id="FaB3kl8fGOnwr_DNzAc7-171" value="" style="whiteSpace=wrap;html=1;aspect=fixed;fillColor=#fff2cc;gradientColor=#ffd966;strokeColor=#d6b656;" vertex="1" parent="1">
          <mxGeometry x="-400" y="985" width="40" height="40" as="geometry" />
        </mxCell>
        <mxCell id="FaB3kl8fGOnwr_DNzAc7-172" value="" style="whiteSpace=wrap;html=1;aspect=fixed;fillColor=#f5f5f5;gradientColor=#b3b3b3;strokeColor=#666666;" vertex="1" parent="1">
          <mxGeometry x="-360" y="985" width="40" height="40" as="geometry" />
        </mxCell>
        <mxCell id="FaB3kl8fGOnwr_DNzAc7-173" value="" style="whiteSpace=wrap;html=1;aspect=fixed;fillColor=#f5f5f5;gradientColor=#b3b3b3;strokeColor=#666666;" vertex="1" parent="1">
          <mxGeometry x="-320" y="985" width="40" height="40" as="geometry" />
        </mxCell>
        <mxCell id="FaB3kl8fGOnwr_DNzAc7-174" value="" style="whiteSpace=wrap;html=1;aspect=fixed;fillColor=#f5f5f5;gradientColor=#b3b3b3;strokeColor=#666666;" vertex="1" parent="1">
          <mxGeometry x="-180" y="825" width="40" height="40" as="geometry" />
        </mxCell>
        <mxCell id="FaB3kl8fGOnwr_DNzAc7-175" value="" style="whiteSpace=wrap;html=1;aspect=fixed;fillColor=#f5f5f5;gradientColor=#b3b3b3;strokeColor=#666666;" vertex="1" parent="1">
          <mxGeometry x="-140" y="825" width="40" height="40" as="geometry" />
        </mxCell>
        <mxCell id="FaB3kl8fGOnwr_DNzAc7-176" value="" style="whiteSpace=wrap;html=1;aspect=fixed;fillColor=#f5f5f5;gradientColor=#b3b3b3;strokeColor=#666666;" vertex="1" parent="1">
          <mxGeometry x="-100" y="825" width="40" height="40" as="geometry" />
        </mxCell>
        <mxCell id="FaB3kl8fGOnwr_DNzAc7-177" value="" style="whiteSpace=wrap;html=1;aspect=fixed;fillColor=#f5f5f5;gradientColor=#b3b3b3;strokeColor=#666666;" vertex="1" parent="1">
          <mxGeometry x="-60" y="825" width="40" height="40" as="geometry" />
        </mxCell>
        <mxCell id="FaB3kl8fGOnwr_DNzAc7-178" value="" style="whiteSpace=wrap;html=1;aspect=fixed;fillColor=#f5f5f5;gradientColor=#b3b3b3;strokeColor=#666666;" vertex="1" parent="1">
          <mxGeometry x="-20" y="825" width="40" height="40" as="geometry" />
        </mxCell>
        <mxCell id="FaB3kl8fGOnwr_DNzAc7-179" value="" style="whiteSpace=wrap;html=1;aspect=fixed;fillColor=#f5f5f5;gradientColor=#b3b3b3;strokeColor=#666666;" vertex="1" parent="1">
          <mxGeometry x="-20" y="865" width="40" height="40" as="geometry" />
        </mxCell>
        <mxCell id="FaB3kl8fGOnwr_DNzAc7-180" value="" style="whiteSpace=wrap;html=1;aspect=fixed;fillColor=#fff2cc;gradientColor=#ffd966;strokeColor=#d6b656;" vertex="1" parent="1">
          <mxGeometry x="-60" y="865" width="40" height="40" as="geometry" />
        </mxCell>
        <mxCell id="FaB3kl8fGOnwr_DNzAc7-181" value="" style="whiteSpace=wrap;html=1;aspect=fixed;fillColor=#fff2cc;gradientColor=#ffd966;strokeColor=#d6b656;" vertex="1" parent="1">
          <mxGeometry x="-100" y="865" width="40" height="40" as="geometry" />
        </mxCell>
        <mxCell id="FaB3kl8fGOnwr_DNzAc7-182" value="" style="whiteSpace=wrap;html=1;aspect=fixed;fillColor=#fff2cc;gradientColor=#ffd966;strokeColor=#d6b656;" vertex="1" parent="1">
          <mxGeometry x="-140" y="865" width="40" height="40" as="geometry" />
        </mxCell>
        <mxCell id="FaB3kl8fGOnwr_DNzAc7-183" value="" style="whiteSpace=wrap;html=1;aspect=fixed;fillColor=#f5f5f5;gradientColor=#b3b3b3;strokeColor=#666666;" vertex="1" parent="1">
          <mxGeometry x="-180" y="865" width="40" height="40" as="geometry" />
        </mxCell>
        <mxCell id="FaB3kl8fGOnwr_DNzAc7-184" value="" style="whiteSpace=wrap;html=1;aspect=fixed;fillColor=#f5f5f5;gradientColor=#b3b3b3;strokeColor=#666666;" vertex="1" parent="1">
          <mxGeometry x="-180" y="905" width="40" height="40" as="geometry" />
        </mxCell>
        <mxCell id="FaB3kl8fGOnwr_DNzAc7-185" value="" style="whiteSpace=wrap;html=1;aspect=fixed;fillColor=#fff2cc;gradientColor=#ffd966;strokeColor=#d6b656;" vertex="1" parent="1">
          <mxGeometry x="-140" y="905" width="40" height="40" as="geometry" />
        </mxCell>
        <mxCell id="FaB3kl8fGOnwr_DNzAc7-186" value="" style="whiteSpace=wrap;html=1;aspect=fixed;fillColor=#f5f5f5;gradientColor=#b3b3b3;strokeColor=#666666;" vertex="1" parent="1">
          <mxGeometry x="-100" y="905" width="40" height="40" as="geometry" />
        </mxCell>
        <mxCell id="FaB3kl8fGOnwr_DNzAc7-187" value="" style="whiteSpace=wrap;html=1;aspect=fixed;fillColor=#fff2cc;gradientColor=#ffd966;strokeColor=#d6b656;" vertex="1" parent="1">
          <mxGeometry x="-60" y="905" width="40" height="40" as="geometry" />
        </mxCell>
        <mxCell id="FaB3kl8fGOnwr_DNzAc7-188" value="" style="whiteSpace=wrap;html=1;aspect=fixed;fillColor=#f5f5f5;gradientColor=#b3b3b3;strokeColor=#666666;" vertex="1" parent="1">
          <mxGeometry x="-20" y="905" width="40" height="40" as="geometry" />
        </mxCell>
        <mxCell id="FaB3kl8fGOnwr_DNzAc7-189" value="" style="whiteSpace=wrap;html=1;aspect=fixed;fillColor=#f5f5f5;gradientColor=#b3b3b3;strokeColor=#666666;" vertex="1" parent="1">
          <mxGeometry x="-20" y="945" width="40" height="40" as="geometry" />
        </mxCell>
        <mxCell id="FaB3kl8fGOnwr_DNzAc7-190" value="" style="whiteSpace=wrap;html=1;aspect=fixed;fillColor=#fff2cc;gradientColor=#ffd966;strokeColor=#d6b656;" vertex="1" parent="1">
          <mxGeometry x="-60" y="945" width="40" height="40" as="geometry" />
        </mxCell>
        <mxCell id="FaB3kl8fGOnwr_DNzAc7-191" value="" style="whiteSpace=wrap;html=1;aspect=fixed;fillColor=#fff2cc;gradientColor=#ffd966;strokeColor=#d6b656;" vertex="1" parent="1">
          <mxGeometry x="-100" y="945" width="40" height="40" as="geometry" />
        </mxCell>
        <mxCell id="FaB3kl8fGOnwr_DNzAc7-192" value="" style="whiteSpace=wrap;html=1;aspect=fixed;fillColor=#fff2cc;gradientColor=#ffd966;strokeColor=#d6b656;" vertex="1" parent="1">
          <mxGeometry x="-140" y="945" width="40" height="40" as="geometry" />
        </mxCell>
        <mxCell id="FaB3kl8fGOnwr_DNzAc7-193" value="" style="whiteSpace=wrap;html=1;aspect=fixed;fillColor=#f5f5f5;gradientColor=#b3b3b3;strokeColor=#666666;" vertex="1" parent="1">
          <mxGeometry x="-180" y="945" width="40" height="40" as="geometry" />
        </mxCell>
        <mxCell id="FaB3kl8fGOnwr_DNzAc7-194" value="" style="whiteSpace=wrap;html=1;aspect=fixed;fillColor=#f5f5f5;gradientColor=#b3b3b3;strokeColor=#666666;" vertex="1" parent="1">
          <mxGeometry x="-180" y="985" width="40" height="40" as="geometry" />
        </mxCell>
        <mxCell id="FaB3kl8fGOnwr_DNzAc7-195" value="" style="whiteSpace=wrap;html=1;aspect=fixed;fillColor=#f5f5f5;gradientColor=#b3b3b3;strokeColor=#666666;" vertex="1" parent="1">
          <mxGeometry x="-140" y="985" width="40" height="40" as="geometry" />
        </mxCell>
        <mxCell id="FaB3kl8fGOnwr_DNzAc7-196" value="" style="whiteSpace=wrap;html=1;aspect=fixed;fillColor=#f5f5f5;gradientColor=#b3b3b3;strokeColor=#666666;" vertex="1" parent="1">
          <mxGeometry x="-100" y="985" width="40" height="40" as="geometry" />
        </mxCell>
        <mxCell id="FaB3kl8fGOnwr_DNzAc7-197" value="" style="whiteSpace=wrap;html=1;aspect=fixed;fillColor=#f5f5f5;gradientColor=#b3b3b3;strokeColor=#666666;" vertex="1" parent="1">
          <mxGeometry x="-60" y="985" width="40" height="40" as="geometry" />
        </mxCell>
        <mxCell id="FaB3kl8fGOnwr_DNzAc7-198" value="" style="whiteSpace=wrap;html=1;aspect=fixed;fillColor=#f5f5f5;gradientColor=#b3b3b3;strokeColor=#666666;" vertex="1" parent="1">
          <mxGeometry x="-20" y="985" width="40" height="40" as="geometry" />
        </mxCell>
        <mxCell id="FaB3kl8fGOnwr_DNzAc7-199" value="Buffer0" style="rounded=0;whiteSpace=wrap;html=1;fontSize=30;" vertex="1" parent="1">
          <mxGeometry x="-440" y="760" width="120" height="50" as="geometry" />
        </mxCell>
        <mxCell id="FaB3kl8fGOnwr_DNzAc7-200" value="Buffer1" style="rounded=0;whiteSpace=wrap;html=1;fontSize=30;" vertex="1" parent="1">
          <mxGeometry x="-140" y="760" width="120" height="50" as="geometry" />
        </mxCell>
        <mxCell id="FaB3kl8fGOnwr_DNzAc7-201" value="" style="shape=flexArrow;endArrow=classic;html=1;rounded=0;width=14.166666666666668;endSize=7.2250000000000005;fillColor=#e6d0de;gradientColor=#d5739d;strokeColor=#996185;flowAnimation=0;" edge="1" parent="1">
          <mxGeometry width="50" height="50" relative="1" as="geometry">
            <mxPoint x="-260" y="924.5799999999999" as="sourcePoint" />
            <mxPoint x="-200" y="924.5799999999999" as="targetPoint" />
          </mxGeometry>
        </mxCell>
        <mxCell id="FaB3kl8fGOnwr_DNzAc7-202" value="" style="whiteSpace=wrap;html=1;aspect=fixed;fillColor=#f5f5f5;gradientColor=#b3b3b3;strokeColor=#666666;" vertex="1" parent="1">
          <mxGeometry x="-480" y="485" width="40" height="40" as="geometry" />
        </mxCell>
        <mxCell id="FaB3kl8fGOnwr_DNzAc7-203" value="" style="whiteSpace=wrap;html=1;aspect=fixed;fillColor=#f5f5f5;gradientColor=#b3b3b3;strokeColor=#666666;" vertex="1" parent="1">
          <mxGeometry x="-440" y="485" width="40" height="40" as="geometry" />
        </mxCell>
        <mxCell id="FaB3kl8fGOnwr_DNzAc7-204" value="" style="whiteSpace=wrap;html=1;aspect=fixed;fillColor=#fff2cc;gradientColor=#ffd966;strokeColor=#d6b656;" vertex="1" parent="1">
          <mxGeometry x="-400" y="485" width="40" height="40" as="geometry" />
        </mxCell>
        <mxCell id="FaB3kl8fGOnwr_DNzAc7-205" value="" style="whiteSpace=wrap;html=1;aspect=fixed;fillColor=#f5f5f5;gradientColor=#b3b3b3;strokeColor=#666666;" vertex="1" parent="1">
          <mxGeometry x="-360" y="485" width="40" height="40" as="geometry" />
        </mxCell>
        <mxCell id="FaB3kl8fGOnwr_DNzAc7-206" value="" style="whiteSpace=wrap;html=1;aspect=fixed;fillColor=#f5f5f5;gradientColor=#b3b3b3;strokeColor=#666666;" vertex="1" parent="1">
          <mxGeometry x="-320" y="485" width="40" height="40" as="geometry" />
        </mxCell>
        <mxCell id="FaB3kl8fGOnwr_DNzAc7-207" value="" style="whiteSpace=wrap;html=1;aspect=fixed;fillColor=#f5f5f5;gradientColor=#b3b3b3;strokeColor=#666666;" vertex="1" parent="1">
          <mxGeometry x="-320" y="525" width="40" height="40" as="geometry" />
        </mxCell>
        <mxCell id="FaB3kl8fGOnwr_DNzAc7-208" value="" style="whiteSpace=wrap;html=1;aspect=fixed;fillColor=#fff2cc;gradientColor=#ffd966;strokeColor=#d6b656;" vertex="1" parent="1">
          <mxGeometry x="-360" y="525" width="40" height="40" as="geometry" />
        </mxCell>
        <mxCell id="FaB3kl8fGOnwr_DNzAc7-209" value="" style="whiteSpace=wrap;html=1;aspect=fixed;fillColor=#f5f5f5;strokeColor=#666666;gradientColor=#b3b3b3;" vertex="1" parent="1">
          <mxGeometry x="-400" y="525" width="40" height="40" as="geometry" />
        </mxCell>
        <mxCell id="FaB3kl8fGOnwr_DNzAc7-210" value="" style="whiteSpace=wrap;html=1;aspect=fixed;fillColor=#fff2cc;gradientColor=#ffd966;strokeColor=#d6b656;" vertex="1" parent="1">
          <mxGeometry x="-440" y="525" width="40" height="40" as="geometry" />
        </mxCell>
        <mxCell id="FaB3kl8fGOnwr_DNzAc7-211" value="" style="whiteSpace=wrap;html=1;aspect=fixed;fillColor=#f5f5f5;gradientColor=#b3b3b3;strokeColor=#666666;" vertex="1" parent="1">
          <mxGeometry x="-480" y="525" width="40" height="40" as="geometry" />
        </mxCell>
        <mxCell id="FaB3kl8fGOnwr_DNzAc7-212" value="" style="whiteSpace=wrap;html=1;aspect=fixed;fillColor=#fff2cc;gradientColor=#ffd966;strokeColor=#d6b656;" vertex="1" parent="1">
          <mxGeometry x="-480" y="565" width="40" height="40" as="geometry" />
        </mxCell>
        <mxCell id="FaB3kl8fGOnwr_DNzAc7-213" value="" style="whiteSpace=wrap;html=1;aspect=fixed;fillColor=#f5f5f5;strokeColor=#666666;gradientColor=#b3b3b3;" vertex="1" parent="1">
          <mxGeometry x="-440" y="565" width="40" height="40" as="geometry" />
        </mxCell>
        <mxCell id="FaB3kl8fGOnwr_DNzAc7-214" value="" style="whiteSpace=wrap;html=1;aspect=fixed;fillColor=#f5f5f5;gradientColor=#b3b3b3;strokeColor=#666666;" vertex="1" parent="1">
          <mxGeometry x="-400" y="565" width="40" height="40" as="geometry" />
        </mxCell>
        <mxCell id="FaB3kl8fGOnwr_DNzAc7-215" value="" style="whiteSpace=wrap;html=1;aspect=fixed;fillColor=#f5f5f5;strokeColor=#666666;gradientColor=#b3b3b3;" vertex="1" parent="1">
          <mxGeometry x="-360" y="565" width="40" height="40" as="geometry" />
        </mxCell>
        <mxCell id="FaB3kl8fGOnwr_DNzAc7-216" value="" style="whiteSpace=wrap;html=1;aspect=fixed;fillColor=#fff2cc;gradientColor=#ffd966;strokeColor=#d6b656;" vertex="1" parent="1">
          <mxGeometry x="-320" y="565" width="40" height="40" as="geometry" />
        </mxCell>
        <mxCell id="FaB3kl8fGOnwr_DNzAc7-217" value="" style="whiteSpace=wrap;html=1;aspect=fixed;fillColor=#f5f5f5;gradientColor=#b3b3b3;strokeColor=#666666;" vertex="1" parent="1">
          <mxGeometry x="-320" y="605" width="40" height="40" as="geometry" />
        </mxCell>
        <mxCell id="FaB3kl8fGOnwr_DNzAc7-218" value="" style="whiteSpace=wrap;html=1;aspect=fixed;fillColor=#fff2cc;gradientColor=#ffd966;strokeColor=#d6b656;" vertex="1" parent="1">
          <mxGeometry x="-360" y="605" width="40" height="40" as="geometry" />
        </mxCell>
        <mxCell id="FaB3kl8fGOnwr_DNzAc7-219" value="" style="whiteSpace=wrap;html=1;aspect=fixed;fillColor=#f5f5f5;strokeColor=#666666;gradientColor=#b3b3b3;" vertex="1" parent="1">
          <mxGeometry x="-400" y="605" width="40" height="40" as="geometry" />
        </mxCell>
        <mxCell id="FaB3kl8fGOnwr_DNzAc7-220" value="" style="whiteSpace=wrap;html=1;aspect=fixed;fillColor=#fff2cc;gradientColor=#ffd966;strokeColor=#d6b656;" vertex="1" parent="1">
          <mxGeometry x="-440" y="605" width="40" height="40" as="geometry" />
        </mxCell>
        <mxCell id="FaB3kl8fGOnwr_DNzAc7-221" value="" style="whiteSpace=wrap;html=1;aspect=fixed;fillColor=#f5f5f5;gradientColor=#b3b3b3;strokeColor=#666666;" vertex="1" parent="1">
          <mxGeometry x="-480" y="605" width="40" height="40" as="geometry" />
        </mxCell>
        <mxCell id="FaB3kl8fGOnwr_DNzAc7-222" value="" style="whiteSpace=wrap;html=1;aspect=fixed;fillColor=#f5f5f5;gradientColor=#b3b3b3;strokeColor=#666666;" vertex="1" parent="1">
          <mxGeometry x="-480" y="645" width="40" height="40" as="geometry" />
        </mxCell>
        <mxCell id="FaB3kl8fGOnwr_DNzAc7-223" value="" style="whiteSpace=wrap;html=1;aspect=fixed;fillColor=#f5f5f5;gradientColor=#b3b3b3;strokeColor=#666666;" vertex="1" parent="1">
          <mxGeometry x="-440" y="645" width="40" height="40" as="geometry" />
        </mxCell>
        <mxCell id="FaB3kl8fGOnwr_DNzAc7-224" value="" style="whiteSpace=wrap;html=1;aspect=fixed;fillColor=#fff2cc;gradientColor=#ffd966;strokeColor=#d6b656;" vertex="1" parent="1">
          <mxGeometry x="-400" y="645" width="40" height="40" as="geometry" />
        </mxCell>
        <mxCell id="FaB3kl8fGOnwr_DNzAc7-225" value="" style="whiteSpace=wrap;html=1;aspect=fixed;fillColor=#f5f5f5;gradientColor=#b3b3b3;strokeColor=#666666;" vertex="1" parent="1">
          <mxGeometry x="-360" y="645" width="40" height="40" as="geometry" />
        </mxCell>
        <mxCell id="FaB3kl8fGOnwr_DNzAc7-226" value="" style="whiteSpace=wrap;html=1;aspect=fixed;fillColor=#f5f5f5;gradientColor=#b3b3b3;strokeColor=#666666;" vertex="1" parent="1">
          <mxGeometry x="-320" y="645" width="40" height="40" as="geometry" />
        </mxCell>
        <mxCell id="FaB3kl8fGOnwr_DNzAc7-227" value="" style="whiteSpace=wrap;html=1;aspect=fixed;fillColor=#f5f5f5;gradientColor=#b3b3b3;strokeColor=#666666;" vertex="1" parent="1">
          <mxGeometry x="-180" y="485" width="40" height="40" as="geometry" />
        </mxCell>
        <mxCell id="FaB3kl8fGOnwr_DNzAc7-228" value="" style="whiteSpace=wrap;html=1;aspect=fixed;fillColor=#f5f5f5;gradientColor=#b3b3b3;strokeColor=#666666;" vertex="1" parent="1">
          <mxGeometry x="-140" y="485" width="40" height="40" as="geometry" />
        </mxCell>
        <mxCell id="FaB3kl8fGOnwr_DNzAc7-229" value="" style="whiteSpace=wrap;html=1;aspect=fixed;fillColor=#fff2cc;gradientColor=#ffd966;strokeColor=#d6b656;" vertex="1" parent="1">
          <mxGeometry x="-100" y="485" width="40" height="40" as="geometry" />
        </mxCell>
        <mxCell id="FaB3kl8fGOnwr_DNzAc7-230" value="" style="whiteSpace=wrap;html=1;aspect=fixed;fillColor=#f5f5f5;gradientColor=#b3b3b3;strokeColor=#666666;" vertex="1" parent="1">
          <mxGeometry x="-60" y="485" width="40" height="40" as="geometry" />
        </mxCell>
        <mxCell id="FaB3kl8fGOnwr_DNzAc7-231" value="" style="whiteSpace=wrap;html=1;aspect=fixed;fillColor=#f5f5f5;gradientColor=#b3b3b3;strokeColor=#666666;" vertex="1" parent="1">
          <mxGeometry x="-20" y="485" width="40" height="40" as="geometry" />
        </mxCell>
        <mxCell id="FaB3kl8fGOnwr_DNzAc7-232" value="" style="whiteSpace=wrap;html=1;aspect=fixed;fillColor=#f5f5f5;gradientColor=#b3b3b3;strokeColor=#666666;" vertex="1" parent="1">
          <mxGeometry x="-20" y="525" width="40" height="40" as="geometry" />
        </mxCell>
        <mxCell id="FaB3kl8fGOnwr_DNzAc7-233" value="" style="whiteSpace=wrap;html=1;aspect=fixed;fillColor=#fff2cc;gradientColor=#ffd966;strokeColor=#d6b656;" vertex="1" parent="1">
          <mxGeometry x="-60" y="525" width="40" height="40" as="geometry" />
        </mxCell>
        <mxCell id="FaB3kl8fGOnwr_DNzAc7-234" value="" style="whiteSpace=wrap;html=1;aspect=fixed;fillColor=#fff2cc;gradientColor=#ffd966;strokeColor=#d6b656;" vertex="1" parent="1">
          <mxGeometry x="-100" y="525" width="40" height="40" as="geometry" />
        </mxCell>
        <mxCell id="FaB3kl8fGOnwr_DNzAc7-235" value="" style="whiteSpace=wrap;html=1;aspect=fixed;fillColor=#fff2cc;gradientColor=#ffd966;strokeColor=#d6b656;" vertex="1" parent="1">
          <mxGeometry x="-140" y="525" width="40" height="40" as="geometry" />
        </mxCell>
        <mxCell id="FaB3kl8fGOnwr_DNzAc7-236" value="" style="whiteSpace=wrap;html=1;aspect=fixed;fillColor=#f5f5f5;gradientColor=#b3b3b3;strokeColor=#666666;" vertex="1" parent="1">
          <mxGeometry x="-180" y="525" width="40" height="40" as="geometry" />
        </mxCell>
        <mxCell id="FaB3kl8fGOnwr_DNzAc7-237" value="" style="whiteSpace=wrap;html=1;aspect=fixed;fillColor=#fff2cc;gradientColor=#ffd966;strokeColor=#d6b656;" vertex="1" parent="1">
          <mxGeometry x="-180" y="565" width="40" height="40" as="geometry" />
        </mxCell>
        <mxCell id="FaB3kl8fGOnwr_DNzAc7-238" value="" style="whiteSpace=wrap;html=1;aspect=fixed;fillColor=#fff2cc;gradientColor=#ffd966;strokeColor=#d6b656;" vertex="1" parent="1">
          <mxGeometry x="-140" y="565" width="40" height="40" as="geometry" />
        </mxCell>
        <mxCell id="FaB3kl8fGOnwr_DNzAc7-239" value="" style="whiteSpace=wrap;html=1;aspect=fixed;fillColor=#f5f5f5;gradientColor=#b3b3b3;strokeColor=#666666;" vertex="1" parent="1">
          <mxGeometry x="-100" y="565" width="40" height="40" as="geometry" />
        </mxCell>
        <mxCell id="FaB3kl8fGOnwr_DNzAc7-240" value="" style="whiteSpace=wrap;html=1;aspect=fixed;fillColor=#fff2cc;gradientColor=#ffd966;strokeColor=#d6b656;" vertex="1" parent="1">
          <mxGeometry x="-60" y="565" width="40" height="40" as="geometry" />
        </mxCell>
        <mxCell id="FaB3kl8fGOnwr_DNzAc7-241" value="" style="whiteSpace=wrap;html=1;aspect=fixed;fillColor=#fff2cc;gradientColor=#ffd966;strokeColor=#d6b656;" vertex="1" parent="1">
          <mxGeometry x="-20" y="565" width="40" height="40" as="geometry" />
        </mxCell>
        <mxCell id="FaB3kl8fGOnwr_DNzAc7-242" value="" style="whiteSpace=wrap;html=1;aspect=fixed;fillColor=#f5f5f5;gradientColor=#b3b3b3;strokeColor=#666666;" vertex="1" parent="1">
          <mxGeometry x="-20" y="605" width="40" height="40" as="geometry" />
        </mxCell>
        <mxCell id="FaB3kl8fGOnwr_DNzAc7-243" value="" style="whiteSpace=wrap;html=1;aspect=fixed;fillColor=#fff2cc;gradientColor=#ffd966;strokeColor=#d6b656;" vertex="1" parent="1">
          <mxGeometry x="-60" y="605" width="40" height="40" as="geometry" />
        </mxCell>
        <mxCell id="FaB3kl8fGOnwr_DNzAc7-244" value="" style="whiteSpace=wrap;html=1;aspect=fixed;fillColor=#fff2cc;gradientColor=#ffd966;strokeColor=#d6b656;" vertex="1" parent="1">
          <mxGeometry x="-100" y="605" width="40" height="40" as="geometry" />
        </mxCell>
        <mxCell id="FaB3kl8fGOnwr_DNzAc7-245" value="" style="whiteSpace=wrap;html=1;aspect=fixed;fillColor=#fff2cc;gradientColor=#ffd966;strokeColor=#d6b656;" vertex="1" parent="1">
          <mxGeometry x="-140" y="605" width="40" height="40" as="geometry" />
        </mxCell>
        <mxCell id="FaB3kl8fGOnwr_DNzAc7-246" value="" style="whiteSpace=wrap;html=1;aspect=fixed;fillColor=#f5f5f5;gradientColor=#b3b3b3;strokeColor=#666666;" vertex="1" parent="1">
          <mxGeometry x="-180" y="605" width="40" height="40" as="geometry" />
        </mxCell>
        <mxCell id="FaB3kl8fGOnwr_DNzAc7-247" value="" style="whiteSpace=wrap;html=1;aspect=fixed;fillColor=#f5f5f5;gradientColor=#b3b3b3;strokeColor=#666666;" vertex="1" parent="1">
          <mxGeometry x="-180" y="645" width="40" height="40" as="geometry" />
        </mxCell>
        <mxCell id="FaB3kl8fGOnwr_DNzAc7-248" value="" style="whiteSpace=wrap;html=1;aspect=fixed;fillColor=#f5f5f5;gradientColor=#b3b3b3;strokeColor=#666666;" vertex="1" parent="1">
          <mxGeometry x="-140" y="645" width="40" height="40" as="geometry" />
        </mxCell>
        <mxCell id="FaB3kl8fGOnwr_DNzAc7-249" value="" style="whiteSpace=wrap;html=1;aspect=fixed;fillColor=#fff2cc;gradientColor=#ffd966;strokeColor=#d6b656;" vertex="1" parent="1">
          <mxGeometry x="-100" y="645" width="40" height="40" as="geometry" />
        </mxCell>
        <mxCell id="FaB3kl8fGOnwr_DNzAc7-250" value="" style="whiteSpace=wrap;html=1;aspect=fixed;fillColor=#f5f5f5;gradientColor=#b3b3b3;strokeColor=#666666;" vertex="1" parent="1">
          <mxGeometry x="-60" y="645" width="40" height="40" as="geometry" />
        </mxCell>
        <mxCell id="FaB3kl8fGOnwr_DNzAc7-251" value="" style="whiteSpace=wrap;html=1;aspect=fixed;fillColor=#f5f5f5;gradientColor=#b3b3b3;strokeColor=#666666;" vertex="1" parent="1">
          <mxGeometry x="-20" y="645" width="40" height="40" as="geometry" />
        </mxCell>
        <mxCell id="FaB3kl8fGOnwr_DNzAc7-252" value="Buffer0" style="rounded=0;whiteSpace=wrap;html=1;fontSize=30;" vertex="1" parent="1">
          <mxGeometry x="-440" y="420" width="120" height="50" as="geometry" />
        </mxCell>
        <mxCell id="FaB3kl8fGOnwr_DNzAc7-253" value="Buffer1" style="rounded=0;whiteSpace=wrap;html=1;fontSize=30;" vertex="1" parent="1">
          <mxGeometry x="-140" y="420" width="120" height="50" as="geometry" />
        </mxCell>
        <mxCell id="FaB3kl8fGOnwr_DNzAc7-254" value="" style="shape=flexArrow;endArrow=classic;html=1;rounded=0;width=14.166666666666668;endSize=7.2250000000000005;fillColor=#e6d0de;gradientColor=#d5739d;strokeColor=#996185;flowAnimation=0;" edge="1" parent="1">
          <mxGeometry width="50" height="50" relative="1" as="geometry">
            <mxPoint x="-200" y="584.5799999999999" as="sourcePoint" />
            <mxPoint x="-260" y="584.5799999999999" as="targetPoint" />
          </mxGeometry>
        </mxCell>
        <mxCell id="FaB3kl8fGOnwr_DNzAc7-258" value="" style="shape=flexArrow;endArrow=classic;html=1;rounded=0;width=14.166666666666668;endSize=7.2250000000000005;fillColor=#d5e8d4;strokeColor=#82b366;" edge="1" parent="1">
          <mxGeometry width="50" height="50" relative="1" as="geometry">
            <mxPoint x="450" y="695" as="sourcePoint" />
            <mxPoint x="450" y="810" as="targetPoint" />
          </mxGeometry>
        </mxCell>
        <mxCell id="FaB3kl8fGOnwr_DNzAc7-261" value="" style="shape=flexArrow;endArrow=classic;html=1;rounded=0;width=14.166666666666668;endSize=7.2250000000000005;fillColor=#d5e8d4;strokeColor=#82b366;flowAnimation=0;" edge="1" parent="1">
          <mxGeometry width="50" height="50" relative="1" as="geometry">
            <mxPoint x="180" y="924.5" as="sourcePoint" />
            <mxPoint x="30" y="924.5" as="targetPoint" />
          </mxGeometry>
        </mxCell>
        <mxCell id="FaB3kl8fGOnwr_DNzAc7-264" value="" style="shape=flexArrow;endArrow=classic;html=1;rounded=0;width=14.166666666666668;endSize=7.2250000000000005;fillColor=#d5e8d4;strokeColor=#82b366;" edge="1" parent="1">
          <mxGeometry width="50" height="50" relative="1" as="geometry">
            <mxPoint x="-230" y="810" as="sourcePoint" />
            <mxPoint x="-230" y="695" as="targetPoint" />
          </mxGeometry>
        </mxCell>
      </root>
    </mxGraphModel>
  </diagram>
</mxfile>
